<svg width="80" height="80" viewBox="0 0 80 80" fill="none" xmlns="http://www.w3.org/2000/svg">
<path d="M36.1719 0.171944C23.6719 1.46882 12.7187 8.2657 6.0625 18.8594C-3.375 33.8751 -1.59375 53.8126 10.3437 66.7969C16.9844 74.0157 25.2031 78.3126 35.0781 79.7188C36.9375 79.9844 43.0781 79.9688 45 79.7032C54.7187 78.3594 62.9375 74.0782 69.5625 66.8907C75.0156 60.9844 78.5 53.4219 79.7188 44.9219C79.9844 43.0782 79.9844 36.9219 79.7188 35.0782C78.7969 28.5782 76.7344 23.0626 73.3125 17.9063C71.875 15.7188 70.4219 13.9376 68.3906 11.8907C62.1562 5.57819 54.4375 1.68757 45.5469 0.375069C43.625 0.0938187 38.0781 -0.0311813 36.1719 0.171944ZM44.7656 17.1876C50.7969 18.4532 56.1094 22.0157 59.4687 27.0469C61.2344 29.6876 62.2969 32.3438 63 35.7969C63.5 38.3126 63.5 42.3126 62.9844 44.6876C61.2969 52.5938 55.2656 59.4844 47.8906 61.9532C45.3906 62.7969 41.5 63.3907 39.6094 63.2344C36.875 63.0001 34.7812 61.1094 34.2187 58.3751C33.9062 56.8438 34.1875 55.7032 35.3125 53.9688C36.0156 52.8907 36.0625 52.6876 35.625 52.1563C35.3281 51.7657 35.2969 51.7657 32.0781 51.6719C28.3437 51.5626 27.0469 51.3282 24.8906 50.3126C19.375 47.7344 16.3281 42.6251 16.6094 36.4844C17.0312 27.6251 24.1875 19.7657 33.9531 17.4219C36.2812 16.8594 37.7344 16.7344 40.625 16.7969C42.4219 16.8438 43.6719 16.9688 44.7656 17.1876Z" fill="url(#paint0_linear_6_2865)"/>
<path d="M33.7343 21.6093C32.7812 21.875 31.6875 22.5312 31.1562 23.1562C28.9687 25.75 29.8593 29.7343 32.9375 31.1406C34.0468 31.6562 35.8906 31.625 37.0312 31.0781C38.125 30.5625 39 29.6875 39.5156 28.5937C40.1093 27.3437 40.0937 25.5937 39.4843 24.3437C38.4375 22.2187 35.8906 21 33.7343 21.6093Z" fill="black"/>
<path d="M33.7343 21.6093C32.7812 21.875 31.6875 22.5312 31.1562 23.1562C28.9687 25.75 29.8593 29.7343 32.9375 31.1406C34.0468 31.6562 35.8906 31.625 37.0312 31.0781C38.125 30.5625 39 29.6875 39.5156 28.5937C40.1093 27.3437 40.0937 25.5937 39.4843 24.3437C38.4375 22.2187 35.8906 21 33.7343 21.6093Z" fill="url(#paint1_linear_6_2865)"/>
<path d="M46.3281 23.1875C45.1094 23.7032 43.8906 24.9532 43.5156 26.0938C42.7813 28.2813 43.5313 30.6407 45.3906 31.9532C46.3438 32.6407 47.2656 32.875 48.6406 32.7813C50.4844 32.6563 51.9531 31.6719 52.7656 30.0313C53.1406 29.2657 53.2031 28.9532 53.2031 27.8125C53.2031 26.2344 52.8438 25.3282 51.75 24.25C50.8438 23.3282 49.8906 22.9219 48.4375 22.8594C47.4531 22.8125 47.1094 22.8594 46.3281 23.1875Z" fill="black"/>
<path d="M46.3281 23.1875C45.1094 23.7032 43.8906 24.9532 43.5156 26.0938C42.7813 28.2813 43.5313 30.6407 45.3906 31.9532C46.3438 32.6407 47.2656 32.875 48.6406 32.7813C50.4844 32.6563 51.9531 31.6719 52.7656 30.0313C53.1406 29.2657 53.2031 28.9532 53.2031 27.8125C53.2031 26.2344 52.8438 25.3282 51.75 24.25C50.8438 23.3282 49.8906 22.9219 48.4375 22.8594C47.4531 22.8125 47.1094 22.8594 46.3281 23.1875Z" fill="url(#paint2_linear_6_2865)"/>
<path d="M24.4844 30.9375C22.2812 31.5 20.7656 33.3125 20.6562 35.5781C20.5312 37.7031 21.4844 39.3594 23.3437 40.3125C24.2969 40.7969 24.5625 40.8594 25.6094 40.8594C26.6406 40.8594 26.9375 40.7969 27.8594 40.3438C29.75 39.4062 30.7187 37.7344 30.5937 35.5781C30.5312 34.2344 30.1094 33.2812 29.1875 32.3438C28.0625 31.1719 26.0156 30.5625 24.4844 30.9375Z" fill="black"/>
<path d="M24.4844 30.9375C22.2812 31.5 20.7656 33.3125 20.6562 35.5781C20.5312 37.7031 21.4844 39.3594 23.3437 40.3125C24.2969 40.7969 24.5625 40.8594 25.6094 40.8594C26.6406 40.8594 26.9375 40.7969 27.8594 40.3438C29.75 39.4062 30.7187 37.7344 30.5937 35.5781C30.5312 34.2344 30.1094 33.2812 29.1875 32.3438C28.0625 31.1719 26.0156 30.5625 24.4844 30.9375Z" fill="url(#paint3_linear_6_2865)"/>
<path d="M53.5937 33.8908C52.1875 34.3595 50.875 35.5001 50.2812 36.797C49.5468 38.4533 49.9375 40.7501 51.2187 42.2033C52.6406 43.8126 55.3906 44.2501 57.3906 43.172C60.2343 41.6095 60.8125 37.547 58.5 35.2658C57.5312 34.297 56.5312 33.8595 55.1562 33.8126C54.5156 33.7814 53.8125 33.8126 53.5937 33.8908Z" fill="black"/>
<path d="M53.5937 33.8908C52.1875 34.3595 50.875 35.5001 50.2812 36.797C49.5468 38.4533 49.9375 40.7501 51.2187 42.2033C52.6406 43.8126 55.3906 44.2501 57.3906 43.172C60.2343 41.6095 60.8125 37.547 58.5 35.2658C57.5312 34.297 56.5312 33.8595 55.1562 33.8126C54.5156 33.7814 53.8125 33.8126 53.5937 33.8908Z" fill="url(#paint4_linear_6_2865)"/>
<defs>
<linearGradient id="paint0_linear_6_2865" x1="39.9723" y1="79.9104" x2="39.9723" y2="0.0718002" gradientUnits="userSpaceOnUse">
<stop stop-color="#09F5FF"/>
<stop offset="1" stop-color="#ED11FE"/>
</linearGradient>
<linearGradient id="paint1_linear_6_2865" x1="34.9491" y1="31.5085" x2="34.9491" y2="21.4524" gradientUnits="userSpaceOnUse">
<stop stop-color="#09F5FF"/>
<stop offset="1" stop-color="#ED11FE"/>
</linearGradient>
<linearGradient id="paint2_linear_6_2865" x1="48.2202" y1="32.801" x2="48.2202" y2="22.844" gradientUnits="userSpaceOnUse">
<stop stop-color="#09F5FF"/>
<stop offset="1" stop-color="#ED11FE"/>
</linearGradient>
<linearGradient id="paint3_linear_6_2865" x1="25.6249" y1="40.8594" x2="25.6249" y2="30.8272" gradientUnits="userSpaceOnUse">
<stop stop-color="#09F5FF"/>
<stop offset="1" stop-color="#ED11FE"/>
</linearGradient>
<linearGradient id="paint4_linear_6_2865" x1="54.9217" y1="43.7637" x2="54.9217" y2="33.8007" gradientUnits="userSpaceOnUse">
<stop stop-color="#09F5FF"/>
<stop offset="1" stop-color="#ED11FE"/>
</linearGradient>
</defs>
</svg>
