<svg width="80" height="80" viewBox="0 0 80 80" fill="none" xmlns="http://www.w3.org/2000/svg">
<g clip-path="url(#clip0_6_2885)">
<path d="M36.1719 0.171883C23.6719 1.46876 12.7188 8.26563 6.06251 18.8594C-1.54687 30.9531 -1.99999 46.625 4.89063 59.1406C8.01563 64.8281 12.5 69.7031 18.0313 73.4063C21.75 75.8906 27.4063 78.2656 31.7188 79.125C35.0625 79.7969 36.3281 79.9219 40 79.9219C43.6875 79.9219 45.2031 79.7656 48.3125 79.125C62.0625 76.25 73.5469 65.9688 77.9688 52.5313C79.4063 48.1875 79.9219 44.8594 79.9219 40C79.9219 35.2969 79.4219 31.9844 78.1094 27.8906C76.1719 21.7969 72.9531 16.5156 68.3906 11.8906C62.1563 5.57813 54.4375 1.68751 45.5469 0.375008C43.625 0.0937576 38.0781 -0.0312424 36.1719 0.171883ZM47.0313 11.7188V14.0625H40H32.9688V11.7188V9.37501H40H47.0313V11.7188ZM56.4063 21.25V23.5938H40H23.5938V21.25V18.9063H40H56.4063V21.25ZM15.1563 37.6563V47.0313H17.5H19.8438V49.375V51.7188H15.1563H10.4688V40V28.2813H12.8125H15.1563V37.6563ZM29.9844 28.5781C32.4063 29.3281 34.1719 31.25 34.7656 33.7813C35.0938 35.2031 35.0938 44.7969 34.7656 46.2188C33.9375 49.7188 31.0156 51.9063 27.4375 51.6875C24.5938 51.5 22.2656 49.7656 21.2969 47.0781C20.9375 46.0938 20.9375 45.9844 20.9375 40C20.9375 34.0156 20.9375 33.9063 21.2969 32.9219C22.0938 30.7188 24.0313 28.9688 26.2031 28.4531C27.25 28.2031 28.9688 28.2656 29.9844 28.5781ZM46.9688 28.5C48.6406 28.9375 50.1563 30.0625 51.125 31.5625C51.6406 32.375 52.1875 34.0156 52.1875 34.7813V35.3125H49.8438C47.5156 35.3125 47.5 35.3125 47.5 34.9531C47.5 34.4531 46.9531 33.6406 46.375 33.2656C45.9688 33.0313 45.6719 32.9688 45.0313 33.0156C44.0781 33.0781 43.5313 33.4375 43.1094 34.2188C42.8438 34.7188 42.8125 35.2031 42.8125 40C42.8125 44.7969 42.8438 45.2813 43.1094 45.7813C43.5313 46.5625 44.0781 46.9219 45.0313 46.9844C46 47.0625 46.6875 46.7188 47.1875 45.9063C47.4375 45.4844 47.5 45.1094 47.5 43.8594V42.3438H46.3281H45.1563V40V37.6563H48.6719H52.1875V41.7031C52.1875 46.1719 52.0625 46.9688 51.125 48.4375C47.7969 53.6094 39.8906 52.3906 38.375 46.4688C38.0156 45.0625 38.0156 34.8906 38.375 33.5156C39.3281 29.8125 43.2813 27.5156 46.9688 28.5ZM64.5156 28.5781C66.2969 29.125 67.8594 30.4375 68.6875 32.0625C69.4375 33.5469 69.5313 34.3594 69.5313 40C69.5313 45.6406 69.4375 46.4531 68.6875 47.9375C66.6719 51.8594 61.4844 52.9375 57.9688 50.1563C57.1094 49.4688 56.25 48.25 55.8281 47.0781C55.4688 46.0938 55.4688 45.9844 55.4688 40C55.4688 34.0156 55.4688 33.9063 55.8281 32.9219C56.625 30.7188 58.5625 28.9688 60.7344 28.4531C61.7813 28.2031 63.5 28.2656 64.5156 28.5781ZM56.4063 58.75V61.0938H40H23.5938V58.75V56.4063H40H56.4063V58.75ZM47.0313 68.2813V70.625H40H32.9688V68.2813V65.9375H40H47.0313V68.2813Z" fill="black"/>
<path d="M36.1719 0.171883C23.6719 1.46876 12.7188 8.26563 6.06251 18.8594C-1.54687 30.9531 -1.99999 46.625 4.89063 59.1406C8.01563 64.8281 12.5 69.7031 18.0313 73.4063C21.75 75.8906 27.4063 78.2656 31.7188 79.125C35.0625 79.7969 36.3281 79.9219 40 79.9219C43.6875 79.9219 45.2031 79.7656 48.3125 79.125C62.0625 76.25 73.5469 65.9688 77.9688 52.5313C79.4063 48.1875 79.9219 44.8594 79.9219 40C79.9219 35.2969 79.4219 31.9844 78.1094 27.8906C76.1719 21.7969 72.9531 16.5156 68.3906 11.8906C62.1563 5.57813 54.4375 1.68751 45.5469 0.375008C43.625 0.0937576 38.0781 -0.0312424 36.1719 0.171883ZM47.0313 11.7188V14.0625H40H32.9688V11.7188V9.37501H40H47.0313V11.7188ZM56.4063 21.25V23.5938H40H23.5938V21.25V18.9063H40H56.4063V21.25ZM15.1563 37.6563V47.0313H17.5H19.8438V49.375V51.7188H15.1563H10.4688V40V28.2813H12.8125H15.1563V37.6563ZM29.9844 28.5781C32.4063 29.3281 34.1719 31.25 34.7656 33.7813C35.0938 35.2031 35.0938 44.7969 34.7656 46.2188C33.9375 49.7188 31.0156 51.9063 27.4375 51.6875C24.5938 51.5 22.2656 49.7656 21.2969 47.0781C20.9375 46.0938 20.9375 45.9844 20.9375 40C20.9375 34.0156 20.9375 33.9063 21.2969 32.9219C22.0938 30.7188 24.0313 28.9688 26.2031 28.4531C27.25 28.2031 28.9688 28.2656 29.9844 28.5781ZM46.9688 28.5C48.6406 28.9375 50.1563 30.0625 51.125 31.5625C51.6406 32.375 52.1875 34.0156 52.1875 34.7813V35.3125H49.8438C47.5156 35.3125 47.5 35.3125 47.5 34.9531C47.5 34.4531 46.9531 33.6406 46.375 33.2656C45.9688 33.0313 45.6719 32.9688 45.0313 33.0156C44.0781 33.0781 43.5313 33.4375 43.1094 34.2188C42.8438 34.7188 42.8125 35.2031 42.8125 40C42.8125 44.7969 42.8438 45.2813 43.1094 45.7813C43.5313 46.5625 44.0781 46.9219 45.0313 46.9844C46 47.0625 46.6875 46.7188 47.1875 45.9063C47.4375 45.4844 47.5 45.1094 47.5 43.8594V42.3438H46.3281H45.1563V40V37.6563H48.6719H52.1875V41.7031C52.1875 46.1719 52.0625 46.9688 51.125 48.4375C47.7969 53.6094 39.8906 52.3906 38.375 46.4688C38.0156 45.0625 38.0156 34.8906 38.375 33.5156C39.3281 29.8125 43.2813 27.5156 46.9688 28.5ZM64.5156 28.5781C66.2969 29.125 67.8594 30.4375 68.6875 32.0625C69.4375 33.5469 69.5313 34.3594 69.5313 40C69.5313 45.6406 69.4375 46.4531 68.6875 47.9375C66.6719 51.8594 61.4844 52.9375 57.9688 50.1563C57.1094 49.4688 56.25 48.25 55.8281 47.0781C55.4688 46.0938 55.4688 45.9844 55.4688 40C55.4688 34.0156 55.4688 33.9063 55.8281 32.9219C56.625 30.7188 58.5625 28.9688 60.7344 28.4531C61.7813 28.2031 63.5 28.2656 64.5156 28.5781ZM56.4063 58.75V61.0938H40H23.5938V58.75V56.4063H40H56.4063V58.75ZM47.0313 68.2813V70.625H40H32.9688V68.2813V65.9375H40H47.0313V68.2813Z" fill="url(#paint0_linear_6_2885)"/>
<path d="M26.9531 33.1562C26.2031 33.5625 25.7969 34.125 25.625 34.9375C25.5156 35.4844 25.4688 37.4531 25.5 40.5C25.5469 44.9375 25.5625 45.2656 25.875 45.7812C26.8438 47.4531 29.0781 47.4531 29.9531 45.7812C30.3125 45.125 30.3125 45.0156 30.3125 40C30.3125 34.9844 30.3125 34.875 29.9531 34.2188C29.75 33.8281 29.375 33.4219 29.0625 33.2656C28.4688 32.9375 27.4375 32.8906 26.9531 33.1562Z" fill="black"/>
<path d="M26.9531 33.1562C26.2031 33.5625 25.7969 34.125 25.625 34.9375C25.5156 35.4844 25.4688 37.4531 25.5 40.5C25.5469 44.9375 25.5625 45.2656 25.875 45.7812C26.8438 47.4531 29.0781 47.4531 29.9531 45.7812C30.3125 45.125 30.3125 45.0156 30.3125 40C30.3125 34.9844 30.3125 34.875 29.9531 34.2188C29.75 33.8281 29.375 33.4219 29.0625 33.2656C28.4688 32.9375 27.4375 32.8906 26.9531 33.1562Z" fill="url(#paint1_linear_6_2885)"/>
<path d="M61.3281 33.2655C60.625 33.6874 60.3438 34.078 60.1719 34.8436C59.9531 35.7655 59.9531 44.2343 60.1719 45.1561C60.6719 47.328 63.4531 47.7343 64.4844 45.7811C64.8438 45.1249 64.8438 45.0155 64.8438 39.9999C64.8438 34.9843 64.8438 34.8749 64.4844 34.2186C63.875 33.0624 62.375 32.6093 61.3281 33.2655Z" fill="black"/>
<path d="M61.3281 33.2655C60.625 33.6874 60.3438 34.078 60.1719 34.8436C59.9531 35.7655 59.9531 44.2343 60.1719 45.1561C60.6719 47.328 63.4531 47.7343 64.4844 45.7811C64.8438 45.1249 64.8438 45.0155 64.8438 39.9999C64.8438 34.9843 64.8438 34.8749 64.4844 34.2186C63.875 33.0624 62.375 32.6093 61.3281 33.2655Z" fill="url(#paint2_linear_6_2885)"/>
</g>
<defs>
<linearGradient id="paint0_linear_6_2885" x1="39.9719" y1="79.9219" x2="39.9719" y2="0.0717316" gradientUnits="userSpaceOnUse">
<stop stop-color="#09F5FF"/>
<stop offset="1" stop-color="#ED11FE"/>
</linearGradient>
<linearGradient id="paint1_linear_6_2885" x1="27.9015" y1="47.0352" x2="27.9015" y2="32.9844" gradientUnits="userSpaceOnUse">
<stop stop-color="#09F5FF"/>
<stop offset="1" stop-color="#ED11FE"/>
</linearGradient>
<linearGradient id="paint2_linear_6_2885" x1="62.4258" y1="47.0396" x2="62.4258" y2="32.9629" gradientUnits="userSpaceOnUse">
<stop stop-color="#09F5FF"/>
<stop offset="1" stop-color="#ED11FE"/>
</linearGradient>
<clipPath id="clip0_6_2885">
<rect width="80" height="80" fill="white"/>
</clipPath>
</defs>
</svg>
