<svg width="80" height="80" viewBox="0 0 80 80" fill="none" xmlns="http://www.w3.org/2000/svg">
<path d="M36.1719 0.171936C23.6719 1.46881 12.7188 8.26569 6.06256 18.8594C-3.37494 33.8751 -1.59369 53.8126 10.3438 66.7969C16.9844 74.0157 25.2032 78.3126 35.0782 79.7188C36.9376 79.9844 43.0782 79.9688 45.0001 79.7032C54.7188 78.3594 62.9376 74.0782 69.5626 66.8907C75.0157 60.9844 78.5001 53.4219 79.7188 44.9219C79.9844 43.0782 79.9844 36.9219 79.7188 35.0782C78.7969 28.5782 76.7344 23.0626 73.3126 17.9063C71.8751 15.7188 70.4219 13.9376 68.3907 11.8907C62.1563 5.57819 54.4375 1.68756 45.5469 0.375061C43.6251 0.093811 38.0782 -0.031189 36.1719 0.171936ZM55.0782 19.1407C56.5313 19.5313 57.7969 20.2813 59 21.4844C62.4532 24.9532 62.4532 30.3594 58.9844 33.8282C55.5157 37.2969 50.1094 37.2969 46.6407 33.8438C44.8594 32.0626 44.0626 30.1563 44.0626 27.6563C44.0626 25.1719 44.8594 23.2501 46.6407 21.4844C48.4375 19.6876 50.2188 18.9376 52.7344 18.9219C53.5469 18.9063 54.5469 19.0157 55.0782 19.1407ZM35.7032 33.0313C36.1407 33.2188 36.7344 33.6719 37.0313 34.0001C37.3282 34.3438 39.2657 37.5157 41.3282 41.0626C43.3907 44.5938 45.1094 47.5001 45.1563 47.5001C45.2032 47.4844 45.8282 46.4219 46.5626 45.1407C48.0469 42.4844 48.6407 41.8594 50 41.4532C51.4844 41.0157 53.1719 41.5938 54.1094 42.8438C54.8594 43.8438 61.4688 55.4063 61.6719 56.0938C62.2657 57.9688 61.3594 59.9376 59.5313 60.7657C58.8438 61.0782 58.6094 61.0938 40.0001 61.0938C21.3907 61.0938 21.1563 61.0782 20.4688 60.7657C18.5313 59.8907 17.6563 57.7813 18.4063 55.8282C18.8907 54.6094 30.5313 34.8282 31.2657 34.0001C31.6407 33.5782 32.2188 33.1094 32.5782 32.9532C33.4688 32.5469 34.7344 32.5782 35.7032 33.0313Z" fill="url(#paint0_linear_6_2877)"/>
<defs>
<linearGradient id="paint0_linear_6_2877" x1="39.9724" y1="79.9104" x2="39.9724" y2="0.0717926" gradientUnits="userSpaceOnUse">
<stop stop-color="#09F5FF"/>
<stop offset="1" stop-color="#ED11FE"/>
</linearGradient>
</defs>
</svg>
